<svg width="28" height="28" viewBox="0 0 28 28" fill="none" xmlns="http://www.w3.org/2000/svg">
<g clip-path="url(#clip0_442_4833)">
<path d="M27.3002 14C27.3002 6.65456 21.3456 0.699951 14.0002 0.699951C6.65481 0.699951 0.700195 6.65456 0.700195 14C0.700195 21.3453 6.65481 27.2999 14.0002 27.2999C21.3456 27.2999 27.3002 21.3453 27.3002 14Z" fill="#2D374B" stroke="#96BEDC" stroke-width="1.4"/>
<mask id="mask0_442_4833" style="mask-type:alpha" maskUnits="userSpaceOnUse" x="0" y="0" width="28" height="28">
<path d="M28 14C28 6.26801 21.732 0 14 0C6.26801 0 0 6.26801 0 14C0 21.732 6.26801 28 14 28C21.732 28 28 21.732 28 14Z" fill="#C4C4C4"/>
</mask>
<g mask="url(#mask0_442_4833)">
<path d="M14.0864 18.6041L20.5878 28.828L24.5935 26.5067L16.7335 14.1124L14.0864 18.6041ZM27.1608 22.0733L27.1578 20.2134L19.8514 8.8064L17.5427 12.7237L24.6337 24.154L26.8057 22.8954C26.9109 22.8101 26.997 22.7036 27.0582 22.5829C27.1195 22.4621 27.1546 22.3298 27.1612 22.1945L27.1608 22.0733Z" fill="#28A0F0"/>
<path d="M26.9503 14C26.9503 6.84796 21.1524 1.05005 14.0003 1.05005C6.84821 1.05005 1.05029 6.84796 1.05029 14C1.05029 21.1521 6.84821 26.9501 14.0003 26.9501C21.1524 26.9501 26.9503 21.1521 26.9503 14Z" fill="url(#paint0_linear_442_4833)" fill-opacity="0.3" stroke="#96BEDC" stroke-width="2.1"/>
<path d="M0.36357 28.2208L-2.70643 26.4534L-2.94043 25.6201L7.74627 9.0195C8.47607 7.8282 10.066 7.4445 11.542 7.4654L13.2743 7.5111L0.36357 28.2208ZM19.1657 7.5111L14.6004 7.5277L2.24017 27.9534L5.85047 30.0322L6.83227 28.367L19.1657 7.5111Z" fill="white"/>
</g>
</g>
<defs>
<linearGradient id="paint0_linear_442_4833" x1="0.000293296" y1="4.85295e-05" x2="14.0003" y2="28" gradientUnits="userSpaceOnUse">
<stop stop-color="white"/>
<stop offset="1" stop-color="white" stop-opacity="0"/>
</linearGradient>
<clipPath id="clip0_442_4833">
<rect width="28" height="28" fill="white"/>
</clipPath>
</defs>
</svg>
